<svg width="40" height="41" viewBox="0 0 40 41" fill="none" xmlns="http://www.w3.org/2000/svg">
<circle cx="20" cy="20" r="20" transform="matrix(1 0 0 -1 0 40.1885)" fill="#F3F3F6"/>
<path d="M15.1247 9.5835H23.8747C27.208 9.5835 29.9163 12.2918 29.9163 15.6252V24.3752C29.9163 25.9775 29.2798 27.5142 28.1468 28.6473C27.0137 29.7803 25.477 30.4168 23.8747 30.4168H15.1247C11.7913 30.4168 9.08301 27.7085 9.08301 24.3752V15.6252C9.08301 14.0228 9.71954 12.4861 10.8526 11.3531C11.9856 10.22 13.5223 9.5835 15.1247 9.5835ZM14.9163 11.6668C13.9218 11.6668 12.968 12.0619 12.2647 12.7652C11.5614 13.4684 11.1663 14.4223 11.1663 15.4168V24.5835C11.1663 26.6564 12.8434 28.3335 14.9163 28.3335H24.083C25.0776 28.3335 26.0314 27.9384 26.7347 27.2351C27.4379 26.5319 27.833 25.5781 27.833 24.5835V15.4168C27.833 13.3439 26.1559 11.6668 24.083 11.6668H14.9163ZM24.9684 13.2293C25.3138 13.2293 25.645 13.3665 25.8891 13.6107C26.1333 13.8549 26.2705 14.1861 26.2705 14.5314C26.2705 14.8767 26.1333 15.2079 25.8891 15.4521C25.645 15.6963 25.3138 15.8335 24.9684 15.8335C24.6231 15.8335 24.2919 15.6963 24.0477 15.4521C23.8035 15.2079 23.6663 14.8767 23.6663 14.5314C23.6663 14.1861 23.8035 13.8549 24.0477 13.6107C24.2919 13.3665 24.6231 13.2293 24.9684 13.2293ZM19.4997 14.7918C20.881 14.7918 22.2058 15.3406 23.1825 16.3173C24.1593 17.2941 24.708 18.6188 24.708 20.0002C24.708 21.3815 24.1593 22.7063 23.1825 23.683C22.2058 24.6598 20.881 25.2085 19.4997 25.2085C18.1183 25.2085 16.7936 24.6598 15.8168 23.683C14.8401 22.7063 14.2913 21.3815 14.2913 20.0002C14.2913 18.6188 14.8401 17.2941 15.8168 16.3173C16.7936 15.3406 18.1183 14.7918 19.4997 14.7918ZM19.4997 16.8752C18.6709 16.8752 17.876 17.2044 17.29 17.7905C16.7039 18.3765 16.3747 19.1714 16.3747 20.0002C16.3747 20.829 16.7039 21.6238 17.29 22.2099C17.876 22.7959 18.6709 23.1252 19.4997 23.1252C20.3285 23.1252 21.1233 22.7959 21.7094 22.2099C22.2954 21.6238 22.6247 20.829 22.6247 20.0002C22.6247 19.1714 22.2954 18.3765 21.7094 17.7905C21.1233 17.2044 20.3285 16.8752 19.4997 16.8752Z" fill="#1D194E"/>
</svg>
